<svg xmlns="http://www.w3.org/2000/svg" xmlns:xlink="http://www.w3.org/1999/xlink" version="1.1" enable-background="new 0 0 340.158 141.732" xml:space="preserve" width="258.82608699595767" height="63.739130493936585"><rect id="backgroundrect" width="100%" height="100%" x="0" y="0" fill="none" stroke="none" class="" style=""/>

<g class="currentLayer" style=""><title>Layer 1</title><g class="" id="svg_18" transform="translate(-39.673912048339844,-38.04347610473633) ">
	<g id="svg_20">
		<g id="svg_3">
			<polygon fill="#1A1A1A" points="182.05045684882475,72.87699890136719 179.02823931660419,72.87699890136719 179.02823931660419,87.21099853515625 169.818463766185,87.21099853515625 169.818463766185,72.87699890136719 166.79724709378092,72.87699890136719 166.79724709378092,89.96099853515625 180.9711508530861,89.96099853515625 181.2593681511487,93.14700317382812 183.7777134239393,93.14700317382812 183.7777134239393,87.21099853515625 182.05045684882475,87.21099853515625 " id="svg_4"/>
			<polygon fill="#1A1A1A" points="206.44186551286634,89.96099853515625 219.8962420513742,89.96099853515625 219.8962420513742,87.21099853515625 209.4640830450869,87.21099853515625 209.4640830450869,82.74400329589844 218.67284257114693,82.74400329589844 218.67284257114693,79.99299621582031 209.4640830450869,79.99299621582031 209.4640830450869,75.62799835205078 219.8962420513742,75.62799835205078 219.8962420513742,72.87699890136719 206.44186551286634,72.87699890136719 " id="svg_5"/>
			<polygon fill="#1A1A1A" points="223.20567602184087,75.62799835205078 229.5373275245281,75.62799835205078 229.5373275245281,89.96099853515625 232.55954505674868,89.96099853515625 232.55954505674868,75.62799835205078 238.8911965594359,75.62799835205078 238.8911965594359,72.87699890136719 223.20567602184087,72.87699890136719 " id="svg_6"/>
			<polygon fill="#1A1A1A" points="265.59324175526194,89.96099853515625 279.0476182937698,89.96099853515625 279.0476182937698,87.21099853515625 268.61544412293983,87.21099853515625 268.61544412293983,82.74400329589844 277.82520450881634,82.74400329589844 277.82520450881634,79.99299621582031 268.61544412293983,79.99299621582031 268.61544412293983,75.62799835205078 279.0476182937698,75.62799835205078 279.0476182937698,72.87699890136719 265.59324175526194,72.87699890136719 " id="svg_7"/>
			<polygon fill="#1A1A1A" points="282.35706742877915,75.62799835205078 288.68868860238103,75.62799835205078 288.68868860238103,89.96099853515625 291.7109212991443,89.96099853515625 291.7109212991443,75.62799835205078 298.0425728018315,75.62799835205078 298.0425728018315,72.87699890136719 282.35706742877915,72.87699890136719 " id="svg_8"/>
			<polygon fill="#1A1A1A" points="251.77908644181275,81.51200103759766 243.93583332537833,72.87699890136719 241.98496040399255,72.87699890136719 241.98496040399255,89.96099853515625 245.0151241565743,89.96099853515625 245.0151241565743,78.65599822998047 251.77908644181275,85.64800262451172 258.5420630317774,78.65599822998047 258.5420630317774,89.96099853515625 261.56329486872414,89.96099853515625 261.56329486872414,72.87699890136719 259.62135386297336,72.87699890136719 " id="svg_9"/>
			<polygon fill="#1A1A1A" points="109.5967437727711,72.87699890136719 106.14320873554448,72.87699890136719 101.97014647752053,80.00700378417969 96.42957609023802,80.00700378417969 96.42957609023802,72.87699890136719 93.4083518355626,72.87699890136719 93.4083518355626,89.96099853515625 96.42957609023802,89.96099853515625 96.42957609023802,82.75800323486328 102.02878018176966,82.75800323486328 106.14320873554448,89.96099853515625 109.66829766737851,89.96099853515625 104.70415429394984,81.27400207519531 " id="svg_10"/>
			<path fill="#1A1A1A" d="M122.26004265338997,72.877 h-9.365792368888854 v17.085 h3.0301677560210227 v-4.851 h6.335624612867832 c4.295305031657219,0 6.7629687044024465,-2.558 6.7629687044024465,-6.081 C129.02301135779243,75.374 126.5215576871119,72.877 122.26004265338997,72.877 zM122.117925897368,82.36 h-6.1945016803145405 v-6.732 h6.1945016803145405 c2.6763666011691094,0 3.8103191789388657,1.3820000000000001 3.8103191789388657,3.33 C125.92824507630687,80.913 124.87876749337535,82.36 122.117925897368,82.36 z" id="svg_11"/>
			<path fill="#1A1A1A" d="M200.08834613306146,81.274 c1.3128408021330835,-0.6930000000000002 2.1078995770812035,-2.029 2.1078995770812035,-3.815 c0,-2.5620000000000003 -1.7302466589808465,-4.582 -5.09433910048008,-4.582 H187.15870280546764 v17.085 h10.710435522019862 c3.208062156915665,0 5.190739976942539,-2.195 5.190739976942539,-4.8870000000000005 C203.05987830443004,83.399 202.06704865921358,81.852 200.08834613306146,81.274 zM190.18091997373918,75.628 h6.644703711628914 c1.528500494837761,0 2.2877816249132157,0.8260000000000001 2.2877816249132157,2.107 c0,1.443 -0.8556820065379144,2.354 -2.3841825013756752,2.354 h-6.548302835166455 V75.628 zM197.57099128688196,87.211 h-7.390071313142776 v-4.371 h7.389077489674092 c1.4847722622156143,0 2.395114559531212,0.8300000000000001 2.395114559531212,2.184 C199.96511202294448,86.24 199.24260236121037,87.211 197.57099128688196,87.211 z" id="svg_12"/>
			<path fill="#1A1A1A" d="M156.77453789735654,75.265 c2.375238090157509,0 3.7278318310379985,0.795 4.951228520989418,2.171 l1.9429248812794686,-1.8810000000000002 c-1.7014257783889772,-1.895 -3.6175174260139467,-3.041 -6.857381933927536,-3.041 c-5.648892596006394,0 -9.25845943427086,4.26 -9.25845943427086,8.905 c0,5.225 3.546955959737301,8.903 8.925528572261333,8.903 c3.435647731244564,0 5.604170539915562,-1.244 7.0481960399150845,-2.75 l-1.8713695915341377,-1.955 c-1.006743173778057,1.014 -2.629656898140907,1.974 -4.9323458750844,1.974 c-3.733794771850109,0 -6.077230511009693,-2.351 -6.077230511009693,-6.027 C150.64463474250655,78.046 153.09242194587807,75.265 156.77453789735654,75.265 z" id="svg_13"/>
			<path fill="#1A1A1A" d="M143.91644985950808,89.961 h3.237876860976219 l-8.202025087058544,-17.447 h-2.374244266688824 l-8.27457420027256,17.447 h3.310425974190235 l1.350606093943119,-3.076 h9.529773241221905 L143.91644985950808,89.961 zM137.72890494347433,76.713 l3.4366415547132494,7.421 h-6.874276932895183 L137.72890494347433,76.713 z" id="svg_14"/>
		</g>
	</g>
	<g id="svg_22" transform="">
		<defs transform="translate(35.70100021362305,39.95800018310547) scale(0.9938234686851501,1) translate(-35.70100021362305,-39.95800018310547) ">
			<path id="SVGID_1_" d="M85.421,60.807H65.996c5.404-2.414,9.3-7.671,9.696-13.912l0.06-1.053H65.23l-5.882-5.885l-5.888,5.885     h-10.52l0.064,1.049h-0.007c0.394,6.242,4.288,11.5,9.693,13.916H40.484v40.968h17.009v-42.87     c-5.249-0.773-9.535-4.773-10.803-9.91h8.484l4.171-4.172l4.171,4.172h8.484c-1.27,5.141-5.563,9.143-10.814,9.913v42.867h24.235     L73.595,81.293L85.421,60.807z M54.009,98.287H43.966V64.288h10.043V98.287z M79.386,98.287H64.672V64.288h14.715l-9.815,17.005     L79.386,98.287z"/>
		</defs>
		<clipPath id="SVGID_2_" transform="translate(35.70100021362305,39.95800018310547) scale(0.9938234686851501,1) translate(-35.70100021362305,-39.95800018310547) ">
			<use xlink:href="#SVGID_1_" overflow="visible" id="svg_16"/>
		</clipPath>
		
			<radialGradient id="SVGID_3_" cx="-336.4556884765625" cy="40.464500427246094" r="89.9478988647461" gradientTransform="matrix(0.8247 0 0 1 363.5143 0)" gradientUnits="userSpaceOnUse" transform="translate(35.70100021362305,39.95800018310547) scale(0.9938234686851501,1) translate(-35.70100021362305,-39.95800018310547) ">
			<stop offset="0" style="stop-color:#FDC75F"/>
			<stop offset="0.6613" style="stop-color:#CF844B"/>
			<stop offset="1" style="stop-color:#E6B25E"/>
		</radialGradient>
		<rect x="35.70100021362305" y="39.95800018310547" clip-path="url(#SVGID_2_)" fill="url(#SVGID_3_)" width="50.858915251735425" height="62.05400085449219" id="svg_17"/>
	</g>
</g></g></svg>