<svg width="50" height="50" viewBox="0 0 50 50" fill="none" xmlns="http://www.w3.org/2000/svg">
<rect width="50" height="50" rx="25" fill="#ED6841"/>
<path d="M17.2584 17.0449C16.9067 17.3965 16.7092 17.8735 16.7092 18.3707C16.7092 18.868 16.9067 19.3449 17.2584 19.6966L27.7589 30.1971L20.7939 30.1971C20.3084 30.2142 19.8485 30.4192 19.511 30.7687C19.1736 31.1182 18.985 31.5851 18.985 32.0709C18.985 32.5568 19.1736 33.0236 19.511 33.3732C19.8485 33.7227 20.3084 33.9276 20.7939 33.9448L32.2844 33.9448C32.7813 33.9445 33.2577 33.7469 33.609 33.3956C33.9604 33.0443 34.1579 32.5678 34.1582 32.0709L34.1582 20.5805C34.1411 20.0949 33.9362 19.635 33.5866 19.2976C33.2371 18.9602 32.7702 18.7716 32.2844 18.7716C31.7986 18.7716 31.3317 18.9602 30.9822 19.2976C30.6326 19.635 30.4277 20.0949 30.4105 20.5805V27.5455L19.91 17.0449C19.5584 16.6933 19.0815 16.4957 18.5842 16.4957C18.0869 16.4957 17.61 16.6933 17.2584 17.0449Z" fill="white"/>
</svg>
